<?xml version="1.0" encoding="UTF-8"?>
<svg xmlns="http://www.w3.org/2000/svg" xmlns:xlink="http://www.w3.org/1999/xlink" xmlns:svgjs="http://svgjs.com/svgjs" version="1.1" width="60" height="60" x="0" y="0" viewBox="0 0 512 512" style="enable-background:new 0 0 512 512" xml:space="preserve" class="">
  <g>
    <path xmlns="http://www.w3.org/2000/svg" d="m246.775 291.137c-1.178 0-2.376-.21-3.544-.652-5.164-1.959-7.763-7.732-5.805-12.896l18.445-48.645c1.958-5.163 7.728-7.762 12.896-5.805 5.164 1.958 7.763 7.732 5.805 12.896l-18.445 48.645c-1.515 3.997-5.316 6.457-9.352 6.457z" fill="#000000" data-original="#000000" style="" class=""/>
    <path xmlns="http://www.w3.org/2000/svg" d="m294.548 290.319c-1.701.001-3.425-.434-5.002-1.348-4.779-2.768-6.409-8.887-3.642-13.665l10.926-18.862-10.837-17.974c-2.851-4.73-1.328-10.875 3.401-13.727 4.729-2.853 10.875-1.329 13.728 3.401l13.888 23.036c1.882 3.122 1.916 7.021.089 10.175l-13.888 23.976c-1.855 3.2-5.212 4.988-8.663 4.988z" fill="#000000" data-original="#000000" style="" class=""/>
    <path xmlns="http://www.w3.org/2000/svg" d="m217.452 290.319c-3.451.001-6.809-1.788-8.663-4.989l-13.888-23.976c-1.827-3.154-1.793-7.053.089-10.175l13.888-23.036c2.853-4.729 8.997-6.254 13.728-3.401 4.73 2.852 6.252 8.997 3.401 13.727l-10.837 17.974 10.926 18.862c2.768 4.779 1.138 10.897-3.642 13.665-1.577.915-3.302 1.349-5.002 1.349z" fill="#000000" data-original="#000000" style="" class=""/>
    <path xmlns="http://www.w3.org/2000/svg" d="m267.4 381.413h-22.8c-5.522 0-10-4.477-10-10s4.478-10 10-10h22.8c5.523 0 10 4.477 10 10s-4.477 10-10 10z" fill="#000000" data-original="#000000" style="" class=""/>
    <path xmlns="http://www.w3.org/2000/svg" d="m256.18 423.96c-4.175 0-8.004-2.696-9.405-6.631-1.377-3.871-.212-8.329 2.936-10.991 3.284-2.776 8.092-3.122 11.745-.864 3.503 2.165 5.342 6.406 4.534 10.446-.924 4.617-5.106 8.04-9.81 8.04z" fill="#000000" data-original="#000000" style="" class=""/>
    <path xmlns="http://www.w3.org/2000/svg" d="m461.369 25.85h-410.738c-27.918 0-50.631 22.724-50.631 50.655v296.801c0 27.932 22.713 50.656 50.631 50.656h128.018l-13.226 49.612c-.801 3.001-.16 6.205 1.732 8.668 1.893 2.463 4.823 3.907 7.93 3.907h161.83c3.107 0 6.037-1.444 7.93-3.907s2.533-5.667 1.732-8.668l-13.226-49.612h128.018c27.918 0 50.631-22.724 50.631-50.656v-296.801c0-27.931-22.713-50.655-50.631-50.655zm-441.369 50.655c0-16.903 13.741-30.655 30.631-30.655h410.738c16.89 0 30.631 13.752 30.631 30.656v247.365h-99.671c4.049-8.106 7.363-16.556 9.904-25.266l14.456-3.738c3.762-.973 6.619-4.037 7.328-7.857 1.9-10.236 2.863-20.772 2.863-31.314 0-10.541-.963-21.077-2.863-31.313-.709-3.82-3.566-6.884-7.328-7.857l-14.456-3.738c-3.043-10.43-7.192-20.487-12.388-30.027l7.731-12.079c2.156-3.369 2.099-7.698-.147-11.007-12.211-17.99-27.516-33.309-45.488-45.533-3.314-2.254-7.651-2.312-11.022-.149l-12.056 7.732c-9.527-5.197-19.57-9.349-29.985-12.393l-3.735-14.475c-.971-3.762-4.034-6.622-7.855-7.332-20.459-3.805-42.117-3.805-62.576 0-3.82.71-6.884 3.57-7.854 7.332l-3.735 14.475c-10.415 3.044-20.458 7.196-29.985 12.393l-12.056-7.732c-3.372-2.163-7.709-2.104-11.023.149-17.973 12.224-33.277 27.543-45.488 45.533-2.246 3.31-2.304 7.639-.147 11.007l7.731 12.079c-5.195 9.54-9.345 19.597-12.388 30.027l-14.456 3.738c-3.762.973-6.619 4.037-7.328 7.857-1.9 10.236-2.863 20.772-2.863 31.313 0 10.542.963 21.077 2.863 31.314.709 3.82 3.566 6.884 7.328 7.857l14.456 3.738c2.541 8.709 5.855 17.16 9.904 25.266h-99.671zm155.706 179.192c0-44.274 36.02-80.294 80.294-80.294s80.294 36.02 80.294 80.294c0 27.675-14.439 53.557-37.853 68.174h-84.883c-23.413-14.617-37.852-40.499-37.852-68.174zm180.588 0c0-55.302-44.991-100.294-100.294-100.294s-100.294 44.992-100.294 100.294c0 25.539 9.842 49.854 26.775 68.174h-40.014c-.017-.028-.033-.057-.051-.085-6.684-11.153-11.668-23.206-14.813-35.825-.887-3.558-3.649-6.345-7.199-7.263l-13.775-3.562c-1.002-7.059-1.509-14.246-1.509-21.439s.507-14.379 1.509-21.438l13.775-3.562c3.55-.918 6.313-3.705 7.199-7.263 3.146-12.62 8.13-24.673 14.813-35.825 1.951-3.255 1.892-7.335-.155-10.532l-7.358-11.496c8.81-11.859 19.223-22.284 31.069-31.103l11.472 7.357c3.2 2.053 7.287 2.113 10.547.156 11.141-6.69 23.181-11.678 35.784-14.826 3.558-.889 6.344-3.653 7.26-7.203l3.56-13.793c14.1-2.005 28.713-2.005 42.813 0l3.559 13.793c.916 3.55 3.702 6.314 7.26 7.203 12.604 3.147 24.644 8.135 35.784 14.826 3.26 1.957 7.348 1.896 10.547-.156l11.472-7.357c11.847 8.819 22.26 19.244 31.069 31.103l-7.358 11.496c-2.047 3.197-2.106 7.276-.155 10.532 6.684 11.152 11.668 23.206 14.813 35.825.887 3.558 3.649 6.345 7.199 7.263l13.775 3.562c1.002 7.059 1.509 14.245 1.509 21.438s-.507 14.38-1.509 21.439l-13.775 3.562c-3.55.918-6.313 3.705-7.199 7.263-3.145 12.619-8.13 24.672-14.813 35.825-.018.028-.034.056-.051.085h-40.014c16.931-18.32 26.773-42.635 26.773-68.174zm135.706 117.61c0 16.904-13.741 30.656-30.631 30.656h-160.163c-5.522 0-10 4.477-10 10s4.478 10 10 10h11.448l11.246 42.187h-135.8l11.246-42.188h11.448c5.523 0 10-4.477 10-10s-4.477-10-10-10h-160.163c-16.89 0-30.631-13.752-30.631-30.655v-29.436h472z" fill="#000000" data-original="#000000" style="" class=""/>
  </g>
</svg>
