<?xml version="1.0" encoding="UTF-8"?>
<svg xmlns="http://www.w3.org/2000/svg" xmlns:xlink="http://www.w3.org/1999/xlink" xmlns:svgjs="http://svgjs.com/svgjs" version="1.1" width="60" height="60" x="0" y="0" viewBox="0 0 64 64" style="enable-background:new 0 0 512 512" xml:space="preserve" class="">
  <g>
    <g xmlns="http://www.w3.org/2000/svg" id="Application-Smartphone-Program-Software-Utility">
      <path d="m50 48v4h-36v-4h-2v8a6 6 0 0 0 6 6h28a6 6 0 0 0 6-6v-8zm0 8a4 4 0 0 1 -4 4h-28a4 4 0 0 1 -4-4v-2h36z" fill="#000000" data-original="#000000" style=""/>
      <path d="m46 2h-28a6 6 0 0 0 -6 6v14h2v-10h36v10h2v-14a6 6 0 0 0 -6-6zm4 8h-36v-2a4 4 0 0 1 4-4h28a4 4 0 0 1 4 4z" fill="#000000" data-original="#000000" style=""/>
      <path d="m25 6h2v2h-2z" fill="#000000" data-original="#000000" style=""/>
      <path d="m29 6h6v2h-6z" fill="#000000" data-original="#000000" style=""/>
      <path d="m31 56h2v2h-2z" fill="#000000" data-original="#000000" style=""/>
      <path d="m40.242 26.03-1.667-.418q-.107-.292-.237-.574l.884-1.474a1 1 0 0 0 -.151-1.221l-1.414-1.414a1 1 0 0 0 -1.221-.151l-1.474.884q-.282-.13-.574-.237l-.418-1.667a1 1 0 0 0 -.97-.758h-2a1 1 0 0 0 -.97.758l-.418 1.667q-.292.106-.574.237l-1.474-.884a1 1 0 0 0 -1.221.151l-1.414 1.414a1 1 0 0 0 -.151 1.221l.884 1.474q-.13.282-.237.574l-1.667.418a1 1 0 0 0 -.758.97v2a1 1 0 0 0 .758.97l1.667.418q.106.292.237.574l-.884 1.473a1 1 0 0 0 .151 1.221l1.414 1.415a1 1 0 0 0 1.221.151l1.474-.884q.282.13.574.237l.418 1.667a1 1 0 0 0 .97.758h2a1 1 0 0 0 .97-.758l.418-1.667q.292-.107.574-.237l1.474.884a1 1 0 0 0 1.221-.151l1.414-1.415a1 1 0 0 0 .151-1.221l-.884-1.473q.13-.282.237-.574l1.667-.418a1 1 0 0 0 .758-.97v-2a1 1 0 0 0 -.758-.97zm-1.242 2.19-1.452.363a1 1 0 0 0 -.724.71 4.983 4.983 0 0 1 -.5 1.2 1 1 0 0 0 .008 1.016l.768 1.291-.31.309-1.283-.769a1 1 0 0 0 -1.016-.008 4.983 4.983 0 0 1 -1.2.5 1 1 0 0 0 -.71.724l-.361 1.444h-.44l-.363-1.452a1 1 0 0 0 -.71-.724 4.983 4.983 0 0 1 -1.2-.5 1 1 0 0 0 -1.016.008l-1.283.769-.308-.301.77-1.283a1 1 0 0 0 .008-1.016 4.983 4.983 0 0 1 -.5-1.2 1 1 0 0 0 -.724-.71l-1.454-.371v-.44l1.452-.363a1 1 0 0 0 .724-.71 4.983 4.983 0 0 1 .5-1.2 1 1 0 0 0 -.008-1.016l-.77-1.283.31-.31 1.283.77a1 1 0 0 0 1.016.008 4.983 4.983 0 0 1 1.2-.5 1 1 0 0 0 .71-.724l.363-1.452h.44l.363 1.452a1 1 0 0 0 .71.724 4.983 4.983 0 0 1 1.2.5 1 1 0 0 0 1.016-.008l1.291-.768.31.31-.77 1.283a1 1 0 0 0 -.008 1.016 4.983 4.983 0 0 1 .5 1.2 1 1 0 0 0 .724.71l1.444.361z" fill="#000000" data-original="#000000" style=""/>
      <path d="m32 25a3 3 0 1 0 3 3 3 3 0 0 0 -3-3zm0 4a1 1 0 1 1 1-1 1 1 0 0 1 -1 1z" fill="#000000" data-original="#000000" style=""/>
      <path d="m24 43h-2a1 1 0 0 1 -1 1h-16a1 1 0 0 1 -1-1v-16a1 1 0 0 1 1-1h12v-2h-12a3 3 0 0 0 -3 3v16a3 3 0 0 0 3 3h16a3 3 0 0 0 3-3z" fill="#000000" data-original="#000000" style=""/>
      <path d="m12 32h2a1 1 0 0 1 1 1h2a3 3 0 0 0 -3-3v-1h-2v1a3 3 0 0 0 0 6h2a1 1 0 0 1 0 2h-2a1 1 0 0 1 -1-1h-2a3 3 0 0 0 3 3v1h2v-1a3 3 0 0 0 0-6h-2a1 1 0 0 1 0-2z" fill="#000000" data-original="#000000" style=""/>
      <path d="m59 24h-12v2h12a1 1 0 0 1 1 1v16a1 1 0 0 1 -1 1h-16a1 1 0 0 1 -1-1h-2a3 3 0 0 0 3 3h16a3 3 0 0 0 3-3v-16a3 3 0 0 0 -3-3z" fill="#000000" data-original="#000000" style=""/>
      <path d="m58.84 38.42-3.63-3.63a1.008 1.008 0 0 0 -1.42 0l-1.78 1.79a.97.97 0 0 1 -.96.27 3.041 3.041 0 0 1 -1.9-1.9.97.97 0 0 1 .27-.96l1.79-1.78a1.008 1.008 0 0 0 0-1.42l-3.63-3.63a1.011 1.011 0 0 0 -1.35-.06 9.284 9.284 0 0 0 -1.23 1.28v-10.38a3.009 3.009 0 0 0 -3-3h-20a3.009 3.009 0 0 0 -3 3v20a3.009 3.009 0 0 0 3 3h20a3.005 3.005 0 0 0 2.71-1.74 9.031 9.031 0 0 0 6.1 3.66 9.356 9.356 0 0 0 1.18.08 8.972 8.972 0 0 0 6.91-3.23 1.011 1.011 0 0 0 -.06-1.35zm-15.84-.42a1 1 0 0 1 -1 1h-20a1 1 0 0 1 -1-1v-20a1 1 0 0 1 1-1h20a1 1 0 0 1 1 1zm3.85-8.74 2.24 2.24-1.08 1.08c-.01 0-.01 0-.01.01l-2.07-2.07a7.528 7.528 0 0 1 .92-1.26zm4.21 11.68a7.043 7.043 0 0 1 -6-6 7.212 7.212 0 0 1 .09-2.37l1.98 1.97a2.688 2.688 0 0 0 .13 1.05 4.98 4.98 0 0 0 3.16 3.15 2.616 2.616 0 0 0 1.04.13l1.97 1.98a7.212 7.212 0 0 1 -2.37.09zm4.42-.87-2.07-2.07c.01 0 .01 0 .01-.01l1.08-1.08 2.24 2.24a7.528 7.528 0 0 1 -1.26.92z" fill="#000000" data-original="#000000" style=""/>
    </g>
  </g>
</svg>
